<?xml version="1.0" encoding="UTF-8"?>
<svg width="185px" height="31px" viewBox="0 0 185 31" version="1.1" xmlns="http://www.w3.org/2000/svg" xmlns:xlink="http://www.w3.org/1999/xlink">
    <title>Untitled</title>
    <g id="Page-1" stroke="none" stroke-width="1" fill="none" fill-rule="evenodd">
        <g id="logo" fill="#FFFFFF" fill-rule="nonzero">
            <path d="M22.184,1.28499101 C16.274,1.281 10.109,2.613 3.883,4.34 C3.093,4.5 2.32,5.016 1.914,5.656 C1.539,6.258 1.402,6.863 1.285,7.5 C0.68,10.887 0.754,14.215 0.879,17.898 C0.906,18.742 1.035,19.746 1.426,20.352 C1.84,20.965 2.543,21.355 3.386,21.484 C4.469,21.648 5.546,21.774 6.625,21.887 L6.387,28.543 C6.347,29.07 6.609,29.512 6.93,29.766 C7.219,29.984 7.54,30.082 7.867,30.106 C8.523,30.156 9.297,29.871 9.68,29.145 C11.36,25.91 12.414,24.485 14.512,22.335 C19.992,22.473 24.773,22.168 30.184,21.765 C32.098,21.719 33.414,20.152 33.762,18.902 C34.797,15.664 34.961,11.668 35.07,7.625 C35.117,6.023 34.562,4.453 33.578,3.621 C32.641,2.863 31.512,2.59 30.473,2.309 C27.59,1.656 24.707,1.305 22.183,1.28499101 L22.184,1.28499101 Z M30.059,3.816 C31.098,4.098 32.016,4.371 32.589,4.84 C33.555,5.863 33.523,6.547 33.512,7.652 C33.402,11.57 33.215,15.375 32.328,18.258 C31.945,19.332 31.285,20.098 30.028,20.211 C24.512,20.621 19.727,20.938 14.184,20.777 C13.9666523,20.7705217 13.756201,20.8536897 13.602,21.007 C11.273,23.359 10.082,24.997 8.305,28.414 C8.265,28.492 8.175,28.539 8.063,28.547 C7.993,28.543 7.961,28.484 7.957,28.434 L8.195,21.214 C8.19671617,20.8107841 7.89949732,20.4686617 7.5,20.414 C6.20565775,20.2894217 4.91486605,20.1303652 3.629,19.937 C3.074,19.855 2.871,19.703 2.719,19.477 C2.453,18.844 2.457,18.453 2.438,17.847 C2.312,14.191 2.254,11 2.812,7.824 C2.867,7.352 3.043,6.871 3.23,6.473 C3.54,5.988 4.012,5.918 4.488,5.785 C10.574,4.105 16.528,2.848 22.137,2.844 C24.887,2.941 27.77,3.219 30.059,3.816 L30.059,3.816 Z M9.035,10.008 C8.195,11.012 8.277,12.375 8.925,13.289 C9.265,13.769 9.793,14.152 10.434,14.239 C11.27,14.309 11.801,13.969 12.371,13.582 C13.406,12.684 13.511,11.113 12.723,9.977 C12.3366676,9.41384168 11.7091457,9.06382064 11.027,9.031 C10.129,9.039 9.52,9.438 9.035,10.008 L9.035,10.008 Z M18.105,9.188 C17.27,9.215 16.594,9.793 16.18,10.418 C15.71,11.128 15.434,12.023 15.816,12.902 C16.551,14.586 19.09,14.566 20.102,12.852 C20.566,12.062 20.449,11.164 20.102,10.516 C19.754,9.863 19.23,9.332 18.469,9.211 C18.3486621,9.191884 18.226787,9.1841831 18.105,9.188 Z M25.469,9.344 C25.2069692,9.33731405 24.9452442,9.36624509 24.691,9.43 C23.687,9.7 22.832,10.734 22.961,12.059 C23.027,12.727 23.332,13.379 23.887,13.824 C24.441,14.274 25.242,14.473 26.09,14.301 C27.062,14.101 27.668,13.316 27.867,12.559 C28.07,11.801 28.02,11.031 27.551,10.406 C27.0585204,9.74914397 26.2898686,9.3570651 25.469,9.344 L25.469,9.344 Z M10.96,10.586 C11.144,10.59 11.292,10.648 11.444,10.867 C11.784,11.359 11.69,12.102 11.347,12.402 C11.007,12.699 10.792,12.727 10.64,12.707 C10.491,12.684 10.339,12.582 10.202,12.391 C9.944,12.023 9.866,11.43 10.21,11.004 C10.39,10.762 10.726,10.609 10.96,10.586 Z M18.214,10.758 C18.241,10.762 18.569,10.953 18.726,11.246 C18.882,11.539 18.909,11.809 18.761,12.059 C18.319,12.809 17.381,12.605 17.241,12.281 C17.186,12.156 17.226,11.656 17.483,11.27 C17.741,10.879 18.061,10.734 18.213,10.758 L18.214,10.758 Z M26.296,11.328 C26.343,11.395 26.46,11.82 26.37,12.156 C26.28,12.496 26.132,12.703 25.772,12.777 C25.312,12.875 25.054,12.777 24.858,12.621 C24.667,12.465 24.534,12.199 24.507,11.914 C24.437,11.211 24.69,11.047 25.093,10.941 C25.558,10.824 26.085,11.027 26.296,11.328 Z M44.867,4.434 C44.8783679,4.23595193 44.9554297,4.04734412 45.086,3.898 C45.2179294,3.74019716 45.4154563,3.65232539 45.621,3.66 L50.844,3.66 C51.02,3.66 51.204,3.734 51.391,3.879 C51.56838,4.0080156 51.6726377,4.21466919 51.671,4.434 L51.671,12.77 L60.411,12.77 L60.411,4.434 C60.4095286,4.22504114 60.4932675,4.0245045 60.6429023,3.8786436 C60.7925371,3.73278271 60.9951469,3.65419261 61.204,3.661 L66.355,3.661 C66.59,3.661 66.793,3.719 66.969,3.836 C67.145,3.953 67.234,4.141 67.234,4.398 L67.234,29 C67.234,29.258 67.156,29.45 67.004,29.578 C66.852,29.707 66.652,29.773 66.406,29.773 L61.203,29.773 C60.9941338,29.7812328 60.7896289,29.7117581 60.629,29.578 C60.484,29.449 60.41,29.258 60.41,29 L60.41,19.012 L51.672,19.012 L51.672,29 C51.672,29.246 51.594,29.438 51.434,29.57 C51.277,29.707 51.063,29.773 50.793,29.773 L45.621,29.773 C45.129,29.773 44.879,29.543 44.867,29.086 L44.867,4.434 Z M92.977,29.473 C92.8384706,29.5943 92.6717078,29.6788849 92.492,29.719 C92.3328907,29.7532155 92.1707378,29.7713069 92.008,29.773 L89.352,29.773 C89.141,29.773 88.961,29.734 88.809,29.66 C88.6599644,29.5853951 88.5281509,29.4804893 88.422,29.352 C88.3130392,29.2178735 88.2234946,29.0690813 88.156,28.91 C88.0851252,28.7451458 88.0263041,28.5753669 87.98,28.402 L87.437,26.152 C87.262,26.516 87.004,26.926 86.672,27.391 C86.3089252,27.880678 85.880244,28.3181079 85.398,28.691 C84.8367606,29.1213827 84.2141762,29.4652029 83.551,29.711 C82.836,29.988 82.016,30.125 81.09,30.125 C79.754,30.125 78.54,29.867 77.45,29.352 C76.3818008,28.8529689 75.4310508,28.1339429 74.66,27.242 C73.895,26.352 73.3,25.309 72.879,24.122 C72.4514401,22.8976032 72.2373282,21.6088731 72.246,20.312 L72.246,8.797 C72.246,8.352 72.34,8.012 72.536,7.785 C72.726,7.555 73.036,7.441 73.457,7.441 L77.52,7.441 C78.023,7.441 78.367,7.527 78.559,7.695 C78.746,7.867 78.839,8.195 78.839,8.691 L78.839,20.137 C78.839,20.641 78.953,21.117 79.179,21.57 C79.6427123,22.4790006 80.4158065,23.1925168 81.359,23.582 C81.836,23.782 82.32,23.882 82.813,23.882 C83.234,23.882 83.672,23.782 84.121,23.582 C84.574,23.382 84.988,23.117 85.371,22.785 C85.75,22.449 86.066,22.055 86.313,21.605 C86.559,21.152 86.68,20.675 86.68,20.172 L86.68,8.742 C86.68,8.543 86.719,8.344 86.793,8.145 C86.8587346,7.96134182 86.9786944,7.80197671 87.137,7.688 C87.289,7.594 87.434,7.528 87.567,7.492 C87.703,7.457 87.859,7.442 88.035,7.442 L92.008,7.442 C92.512,7.442 92.875,7.562 93.098,7.809 C93.32,8.055 93.434,8.387 93.434,8.797 L93.434,28.473 C93.434,28.695 93.383,28.898 93.281,29.086 C93.1884088,29.2685508 93.0463302,29.421372 92.871,29.527 L92.977,29.473 Z M113.391,27.047 C113.074,27.363 112.723,27.703 112.344,28.067 C111.961,28.43 111.543,28.77 111.086,29.086 C110.629,29.402 110.136,29.664 109.609,29.871 C109.063755,30.077345 108.484965,30.180761 107.902,30.1761572 C106.309,30.1761572 104.84,29.879 103.5,29.281 C102.190536,28.7068889 101.011611,27.8722851 100.035,26.828 C99.066,25.789 98.313,24.566 97.765,23.16 C97.223,21.754 96.949,20.242 96.949,18.625 C96.949,16.996 97.223,15.48 97.766,14.078 C98.312,12.68 99.066,11.461 100.036,10.422 C101.010577,9.37784215 102.18973,8.54555843 103.5,7.977 C104.84,7.387 106.309,7.09 107.902,7.09 C108.503645,7.08290002 109.102136,7.17791458 109.672,7.371 C110.185868,7.54868794 110.675369,7.79024705 111.129,8.09 C111.57,8.387 111.973,8.715 112.344,9.086 C112.711,9.453 113.063,9.816 113.391,10.168 L113.391,2.128 C113.391,1.754 113.504,1.438 113.731,1.18 C113.961,0.922 114.305,0.793 114.761,0.793 L118.719,0.793 C118.871,0.793 119.031,0.828 119.199,0.891 C119.371,0.957 119.527,1.047 119.668,1.164 C119.808,1.281 119.922,1.422 120.008,1.586 C120.098,1.75 120.141,1.93 120.141,2.129 L120.141,28.418 C120.141,29.32 119.668,29.773 118.719,29.773 L115.269,29.773 C115.035,29.773 114.855,29.743 114.727,29.683 C114.599042,29.6274618 114.487233,29.5404227 114.402,29.43 C114.302212,29.301892 114.222003,29.1596738 114.164,29.008 C114.094,28.84 114.004,28.641 113.898,28.418 L113.391,27.047 Z M103.276941,18.625 C103.276941,19.398 103.398,20.121 103.641,20.797 C103.863697,21.4427577 104.212827,22.0376721 104.668,22.547 C105.113,23.039 105.648,23.43 106.278,23.715 C106.902,24.004 107.598,24.145 108.359,24.145 C109.109,24.145 109.816,24.012 110.48,23.742 C111.14,23.472 111.719,23.102 112.21,22.625 C112.706083,22.1429417 113.108842,21.5733841 113.398,20.945 C113.69744,20.2925818 113.867253,19.5881947 113.898,18.871 L113.898,18.625 C113.898,17.875 113.758,17.16 113.477,16.48 C113.204094,15.8140911 112.807808,15.2057513 112.309,14.687 C111.807783,14.1695247 111.210695,13.7544841 110.551,13.465 C109.860444,13.1614661 109.113289,13.0080811 108.359,13.015 C107.598,13.015 106.902,13.165 106.277,13.465 C105.660375,13.7545614 105.112024,14.1713626 104.668,14.688 C104.215514,15.2150761 103.86703,15.823141 103.641,16.48 C103.396995,17.1686895 103.273849,17.8943689 103.276941,18.625 L103.276941,18.625 Z M140.555,27.047 C140.238,27.363 139.891,27.703 139.508,28.067 C139.128,28.43 138.711,28.77 138.254,29.086 C137.797,29.402 137.304,29.664 136.774,29.871 C136.229827,30.0774509 135.651999,30.1808767 135.07,30.1761648 C133.477,30.1761648 132.008,29.879 130.664,29.281 C129.356655,28.7057195 128.179589,27.8712273 127.204,26.828 C126.234,25.789 125.477,24.566 124.934,23.16 C124.387,21.754 124.117,20.242 124.117,18.625 C124.117,16.996 124.387,15.48 124.934,14.078 C125.449462,12.7251623 126.220104,11.4839884 127.204,10.422 C128.17786,9.37880751 129.355499,8.54663204 130.664,7.977 C132.008,7.387 133.477,7.09 135.07,7.09 C135.715,7.09 136.305,7.184 136.836,7.371 C137.350785,7.5487499 137.841272,7.79029777 138.296,8.09 C138.734,8.387 139.141,8.715 139.508,9.086 C139.878,9.453 140.227,9.816 140.555,10.168 L140.555,2.128 C140.555,1.754 140.672,1.438 140.898,1.18 C141.128,0.922 141.468,0.793 141.926,0.793 L145.883,0.793 C146.035,0.793 146.195,0.828 146.367,0.891 C146.535,0.957 146.691,1.047 146.832,1.164 C146.972,1.281 147.09,1.422 147.176,1.586 C147.266,1.75 147.309,1.93 147.309,2.129 L147.309,28.418 C147.309,29.32 146.832,29.773 145.883,29.773 L142.437,29.773 C142.203,29.773 142.02,29.743 141.891,29.683 C141.763669,29.6264093 141.652099,29.5395561 141.566,29.43 C141.467635,29.3009493 141.387547,29.1589436 141.328,29.008 C141.258,28.84 141.172,28.641 141.066,28.418 L140.555,27.047 Z M130.44496,18.625 C130.44496,19.398 130.566,20.121 130.805,20.797 C131.030327,21.4421986 131.380296,22.0368063 131.835,22.547 C132.281,23.039 132.816,23.43 133.441,23.715 C134.071,24.004 134.766,24.145 135.527,24.145 C136.252556,24.1504058 136.97213,24.0134895 137.645,23.742 C138.289865,23.4854396 138.878767,23.1060835 139.379,22.625 C139.874725,22.1428565 140.277141,21.5733044 140.566,20.945 C140.86544,20.2925818 141.035253,19.5881947 141.066,18.871 L141.066,18.625 C141.066573,17.1550738 140.494866,15.7426648 139.472,14.687 C138.972544,14.1679096 138.375442,13.7526231 137.715,13.465 C137.025965,13.1611148 136.280035,13.0077014 135.527,13.015 C134.766,13.015 134.07,13.165 133.441,13.465 C132.826189,13.7556586 132.27936,14.1723386 131.836,14.688 C131.383652,15.2158567 131.033978,15.823631 130.805,16.48 C130.56418,17.1693989 130.442442,17.8947543 130.44496,18.625 L130.44496,18.625 Z M151.985,2.148 C151.985,1.773 152.078,1.457 152.265,1.199 C152.453,0.941 152.777,0.813 153.235,0.813 L157.543,0.813 C157.66,0.813 157.781,0.843 157.91,0.91 C158.04,0.973 158.16,1.062 158.27,1.18 C158.383,1.297 158.477,1.438 158.55,1.602 C158.629,1.766 158.668,1.949 158.668,2.148 L158.668,28.418 C158.668,28.863 158.539,29.203 158.289,29.43 C158.035,29.66 157.711,29.773 157.313,29.773 L153.234,29.773 C152.777,29.773 152.454,29.66 152.266,29.43 C152.078,29.203 151.984,28.863 151.984,28.418 L151.985,2.148 Z M181.594,27.102 C180.575287,28.0436165 179.396846,28.7960574 178.114,29.324 C176.824,29.859 175.457,30.125 174.016,30.125 C172.41,30.125 170.895,29.832 169.465,29.246 C168.065391,28.6819392 166.786963,27.8546607 165.699,26.809 C164.615138,25.7647835 163.743761,24.5205423 163.133,23.145 C162.5,21.738 162.183,20.207 162.183,18.555 C162.183,17.523 162.309,16.523 162.563,15.555 C162.813,14.59 163.172,13.684 163.633,12.84 C164.097583,11.9964323 164.664171,11.2132175 165.32,10.508 C166.652458,9.08522243 168.345394,8.04990163 170.219,7.512 C171.179,7.23 172.195,7.09 173.262,7.09 C174.234,7.09 175.176,7.219 176.094,7.477 C177.897415,7.98215725 179.542676,8.93779244 180.875,10.254 C181.534897,10.8999026 182.113507,11.6239206 182.598,12.41 C183.078,13.187 183.449,14.02 183.715,14.906 C183.977,15.789 184.109,16.703 184.109,17.641 C184.109,18.25 184.102,18.746 184.082,19.133 C184.066,19.52 183.977,19.828 183.812,20.059 C183.648,20.285 183.375,20.445 182.992,20.531 C182.613,20.621 182.051,20.664 181.312,20.664 L168.652,20.664 C168.77,21.414 169.008,22.043 169.367,22.547 C169.723,23.051 170.137,23.453 170.605,23.75 C171.075,24.05 171.575,24.262 172.102,24.39 C172.589705,24.5147654 173.090618,24.5805689 173.594,24.586 C174.016,24.586 174.449,24.543 174.894,24.453 C175.333339,24.3692253 175.765606,24.2518813 176.187,24.102 C176.582461,23.9656438 176.965526,23.7956902 177.332,23.594 C177.676,23.398 177.957,23.195 178.168,22.984 C178.355,22.832 178.516,22.719 178.648,22.644 C178.779736,22.5672148 178.929519,22.5268355 179.082,22.527 C179.234,22.527 179.391,22.582 179.547,22.687 C179.707,22.793 179.883,22.945 180.082,23.145 L181.945,25.254 C182.075,25.406 182.156,25.543 182.191,25.668 C182.227,25.789 182.246,25.918 182.246,26.047 C182.250255,26.2647649 182.18162,26.4777072 182.051,26.652 C181.921,26.82 181.77,26.972 181.594,27.102 L181.594,27.102 Z M173.137,12.453 C172.68,12.453 172.238,12.543 171.809,12.727 C171.383,12.907 170.98,13.148 170.605,13.453 C170.229503,13.7600442 169.890305,14.1089721 169.594,14.493 C169.309234,14.8587838 169.064502,15.2540422 168.864,15.672 L177.852,15.672 C177.615195,15.231635 177.347527,14.8085785 177.051,14.406 C176.767711,14.0243268 176.436682,13.6805272 176.066,13.383 C175.685772,13.0855259 175.258112,12.8542853 174.801,12.699 C174.324,12.535 173.77,12.453 173.137,12.453 L173.137,12.453 Z" id="Shape"></path>
        </g>
    </g>
</svg>